HIERARCHY
ROOT Hips
{
	OFFSET	0.00	0.00	0.00
	CHANNELS 6 Xposition Yposition Zposition Zrotation Xrotation Yrotation
	JOINT LeftUpLeg
	{
		OFFSET	 0.126116	-0.014019	-0.065224
		CHANNELS 3 Zrotation Xrotation Yrotation
		JOINT LeftLeg
		{
			OFFSET	 0.000000	 0.000000	 0.569914
			CHANNELS 3 Zrotation Xrotation Yrotation
			JOINT LeftFoot
			{
				OFFSET	 0.000000	 0.000000	 0.544423
				CHANNELS 3 Zrotation Xrotation Yrotation
				JOINT LeftToeBase
				{
					OFFSET	 0.000000	 0.000000	 0.207117
					CHANNELS 3 Zrotation Xrotation Yrotation
					End Site
					{
						OFFSET	 0.000000	 0.000000	 0.207117
					}
				}
			}
		}
	}
	JOINT RightUpLeg
	{
		OFFSET	-0.124023	-0.008373	-0.065224
		CHANNELS 3 Zrotation Xrotation Yrotation
		JOINT RightLeg
		{
			OFFSET	 0.000000	 0.000000	 0.570047
			CHANNELS 3 Zrotation Xrotation Yrotation
			JOINT RightFoot
			{
				OFFSET	 0.000000	 0.000000	 0.544354
				CHANNELS 3 Zrotation Xrotation Yrotation
				JOINT RightToeBase
				{
					OFFSET	 0.000000	 0.000000	 0.207540
					CHANNELS 3 Zrotation Xrotation Yrotation
					End Site
					{
						OFFSET	 0.000000	 0.000000	 0.207540
					}
				}
			}
		}
	}
	JOINT Spine
	{
		OFFSET	 0.000184	-0.007763	 0.117403
		CHANNELS 3 Zrotation Xrotation Yrotation
		JOINT Spine1
		{
			OFFSET	 0.000000	 0.000000	 0.137269
			CHANNELS 3 Zrotation Xrotation Yrotation
			JOINT Spine2
			{
				OFFSET	 0.000000	 0.000000	 0.156879
				CHANNELS 3 Zrotation Xrotation Yrotation
				JOINT LeftShoulder
				{
					OFFSET	 0.080501	-0.002496	 0.160144
					CHANNELS 3 Zrotation Xrotation Yrotation
					JOINT LeftArm
					{
						OFFSET	 0.000000	 0.000000	 0.164363
						CHANNELS 3 Zrotation Xrotation Yrotation
						JOINT LeftForeArm
						{
							OFFSET	 0.000000	 0.000000	 0.364576
							CHANNELS 3 Zrotation Xrotation Yrotation
							JOINT LeftHand
							{
								OFFSET	 0.000000	 0.000000	 0.360812
								CHANNELS 3 Zrotation Xrotation Yrotation
								JOINT LeftHandIndex1
								{
									OFFSET	 0.000000	 0.000000	 0.086006
									CHANNELS 3 Zrotation Xrotation Yrotation
									JOINT LeftHandIndex2
									{
										OFFSET	 0.000000	 0.000000	 0.047236
										CHANNELS 3 Zrotation Xrotation Yrotation
										JOINT LeftHandIndex3
										{
											OFFSET	-0.004284	-0.000551	 0.038166
											CHANNELS 3 Zrotation Xrotation Yrotation
											End Site
											{
												OFFSET	-0.004284	-0.000551	 0.038166
											}
										}
									}
								}
							}
						}
					}
				}
				JOINT Neck
				{
					OFFSET	 0.000000	 0.000000	 0.176489
					CHANNELS 3 Zrotation Xrotation Yrotation
					JOINT Head
					{
						OFFSET	 0.000000	-0.001747	 0.077940
						CHANNELS 3 Zrotation Xrotation Yrotation
						End Site
						{
							OFFSET	 0.000000	-0.001747	 0.077940
						}
					}
				}
				JOINT RightShoulder
				{
					OFFSET	-0.080363	 0.000306	 0.159706
					CHANNELS 3 Zrotation Xrotation Yrotation
					JOINT RightArm
					{
						OFFSET	 0.000000	 0.000000	 0.164196
						CHANNELS 3 Zrotation Xrotation Yrotation
						JOINT RightForeArm
						{
							OFFSET	 0.000000	 0.000000	 0.365611
							CHANNELS 3 Zrotation Xrotation Yrotation
							JOINT RightHand
							{
								OFFSET	 0.000000	 0.000000	 0.360648
								CHANNELS 3 Zrotation Xrotation Yrotation
								JOINT RightHandIndex1
								{
									OFFSET	 0.000000	 0.000000	 0.069977
									CHANNELS 3 Zrotation Xrotation Yrotation
									JOINT RightHandIndex2
									{
										OFFSET	 0.000000	 0.000000	 0.052305
										CHANNELS 3 Zrotation Xrotation Yrotation
										JOINT RightHandIndex3
										{
											OFFSET	 0.009002	-0.000782	 0.042196
											CHANNELS 3 Zrotation Xrotation Yrotation
											End Site
											{
												OFFSET	 0.009002	-0.000782	 0.042196
											}
										}
									}
								}
							}
						}
					}
				}
			}
		}
	}
}
MOTION
Frames:    11
Frame Time: 0.03333334
 0.011463	 0.039588	 1.216197	 179.262100	 0.194775	 0.482076	-4.132402	-9.403179	-179.730800	-1.383741	-40.603170	-6.832562	-160.081900	 82.956300	 146.361600	-2.226527	 45.256340	-0.426742	-5.356671	-9.060523	-177.243600	 6.466061	-39.718930	 9.421507	 175.627900	 83.898860	-166.834100	 2.346789	 34.676060	 0.142741	-19.923040	 5.975566	 1.552742	-1.064679	 10.700380	-2.980773	 7.646502	-23.982500	 5.607272	-91.229350	 83.958340	 178.242700	 26.190670	 60.860170	-45.768990	 0.094348	 0.807859	-5.776700	 14.184740	-23.891100	-12.011510	-11.265800	 8.870638	-23.882140	-5.213937	-0.202400	 3.566957	-1.378229	 35.397820	-2.634230	-1.217239	 7.245814	 5.036586	-2.336280	-19.681180	-6.714550	 87.726830	 87.418960	-176.798800	-68.933180	 60.815730	 70.468520	-0.110027	 0.773452	 5.802029	-25.067890	-20.197680	 22.367030	-1.254660	 24.866100	-62.546860	 5.070519	-0.690904	-9.399550	-2.350882	 35.473990	 5.254307
 0.011876	 0.038688	 1.217672	 179.637700	 0.476002	 0.631143	-4.271824	-9.810495	-179.900300	-1.487311	-40.575720	-6.935785	-160.228700	 83.050190	 146.633500	-2.227497	 45.195580	-0.424866	-5.513462	-9.308040	-177.497200	 6.547437	-39.626010	 9.457366	 177.715600	 83.927400	-168.917400	 2.351903	 33.999990	 0.126654	-23.247630	 5.602249	 1.263916	-1.023560	 10.719290	-2.757915	 7.363736	-24.238940	 5.285573	-91.229200	 83.958310	 178.242500	 29.058750	 62.407770	-47.644180	-1.794731	 1.271921	-6.910486	 12.096920	-25.739270	-13.191530	-11.395340	 8.777289	-24.259090	-5.213937	-0.202400	 3.566957	-1.378229	 35.397820	-2.634230	-1.286191	 7.167709	 5.203963	-2.444210	-19.732330	-6.980089	 87.726810	 87.419040	-176.798800	-67.040180	 60.276650	 66.642520	 1.766066	 1.240079	 6.930479	-23.138760	-21.684780	 23.576950	-0.920889	 25.279120	-62.151200	 5.070519	-0.690904	-9.399550	-2.350882	 35.473990	 5.254307
 0.012009	 0.038199	 1.218025	 179.725200	 0.529220	 0.680384	-4.317576	-10.003190	-179.875200	-1.586750	-40.534190	-6.957600	-160.629900	 83.237260	 147.058000	-2.226230	 45.274630	-0.427309	-5.598509	-9.465413	-177.723400	 6.553030	-39.603330	 9.456628	 179.620800	 84.060760	-170.771600	 2.352756	 33.883520	 0.123898	-23.959750	 5.513460	 1.183427	-0.992074	 10.589210	-2.701618	 7.267603	-24.241820	 5.180841	-91.229260	 83.958340	 178.242600	 30.819380	 63.297200	-49.102340	-2.234493	 1.387776	-7.166120	 11.624850	-26.101290	-13.475110	-11.474480	 8.631762	-24.418930	-5.213937	-0.202400	 3.566957	-1.378229	 35.397820	-2.634230	-1.307774	 7.147349	 5.243534	-2.474497	-19.758200	-7.047035	 87.726700	 87.419040	-176.798700	-67.775650	 60.421810	 66.942100	 2.116376	 1.354699	 7.187407	-22.774010	-22.003110	 23.865060	-0.907325	 25.266380	-61.997980	 5.070519	-0.690904	-9.399550	-2.350882	 35.473990	 5.254307
 0.012144	 0.037643	 1.218381	 179.813800	 0.582780	 0.727872	-4.298129	-10.214040	-179.821200	-1.627094	-40.480720	-6.976799	-161.127500	 83.457850	 147.576400	-2.224930	 45.354710	-0.429798	-5.691130	-9.643176	-177.976000	 6.558216	-39.578270	 9.455154	-178.102100	 84.207760	-172.989600	 2.353609	 33.765600	 0.121128	-24.661450	 5.423080	 1.104172	-0.957060	 10.438420	-2.642292	 7.167985	-24.235850	 5.072282	-91.229260	 83.958340	 178.242600	 32.911050	 64.275280	-50.867200	-2.674383	 1.507781	-7.424356	 11.152380	-26.447210	-13.762030	-11.554960	 8.484732	-24.580830	-5.213937	-0.202400	 3.566957	-1.378229	 35.397820	-2.634230	-1.329609	 7.126720	 5.283605	-2.505416	-19.784280	-7.114934	 87.727170	 87.418960	-176.799100	-68.767040	 60.620200	 67.509480	 2.466252	 1.474644	 7.442378	-22.414220	-22.306260	 24.155500	-0.893554	 25.253510	-61.842780	 5.070519	-0.690904	-9.399550	-2.350882	 35.473990	 5.254307
 0.012229	 0.037098	 1.218711	 179.890500	 0.624932	 0.754012	-4.268679	-10.404380	-179.741000	-1.660611	-40.411500	-6.989184	-161.668000	 83.696810	 148.132400	-2.222869	 45.481270	-0.433732	-5.776214	-9.815594	-178.201800	 6.562311	-39.560550	 9.454385	-175.856100	 84.345630	-175.179100	 2.354606	 33.626120	 0.117842	-25.307690	 5.340391	 1.050372	-0.926251	 10.302340	-2.595873	 7.088629	-24.228810	 4.988057	-91.229220	 83.958270	 178.242500	 35.113030	 65.205980	-52.748540	-3.110204	 1.625525	-7.663064	 10.691580	-26.750830	-14.034010	-11.618630	 8.357714	-24.699610	-5.213937	-0.202400	 3.566957	-1.378229	 35.397820	-2.634230	-1.348940	 7.106102	 5.318970	-2.533475	-19.817520	-7.172209	 87.726830	 87.418890	-176.798800	-69.865940	 60.829360	 68.231030	 2.839694	 1.592463	 7.678929	-22.035780	-22.556440	 24.425330	-0.867823	 25.265990	-61.721030	 5.070519	-0.690904	-9.399550	-2.350882	 35.473990	 5.254307
 0.012045	 0.036652	 1.219008	 179.924300	 0.617869	 0.679436	-4.191253	-10.502080	-179.541400	-1.672372	-40.274850	-6.977537	-162.309600	 84.021610	 148.773200	-2.216141	 45.887500	-0.446470	-5.827307	-9.967732	-178.287700	 6.565367	-39.594720	 9.463120	-174.373700	 84.465260	-176.623600	 2.356661	 33.336380	 0.111056	-25.910910	 5.276467	 1.113248	-0.919507	 10.230180	-2.626956	 7.104329	-24.223600	 5.023882	-91.229330	 83.958340	 178.242700	 37.347160	 66.015090	-54.671020	-3.657744	 1.743323	-7.892946	 10.147120	-26.998960	-14.298610	-11.607810	 8.302696	-24.619920	-5.213937	-0.202400	 3.566957	-1.378229	 35.397820	-2.634230	-1.360009	 7.080635	 5.338602	-2.553027	-19.897960	-7.187603	 87.727040	 87.418890	-176.799000	-71.058780	 61.012570	 69.096070	 3.457548	 1.711135	 7.907625	-21.417920	-22.674280	 24.662830	-0.772112	 25.415910	-61.745320	 5.070519	-0.690904	-9.399550	-2.350882	 35.473990	 5.254307
 0.011536	 0.035071	 1.220145	-179.931700	 0.601627	 0.389580	-3.961434	-10.725410	-178.954500	-1.734581	-39.805480	-6.951154	-164.150300	 85.014140	 150.656000	-2.186695	 47.548830	-0.500322	-5.972311	-10.383560	-178.403700	 6.573879	-39.716280	 9.492588	-170.795400	 84.779030	 179.891400	 2.364524	 32.151390	 0.083662	-28.221650	 5.027806	 1.349128	-0.925709	 10.374700	-2.652554	 7.173801	-24.410160	 5.145263	-91.229160	 83.958310	 178.242500	 43.986500	 67.903210	-60.090540	-5.850360	 2.251917	-8.792168	 7.989844	-27.821540	-15.346050	-11.562870	 8.077706	-24.294150	-5.213937	-0.202400	 3.566957	-1.378229	 35.397820	-2.634230	-1.405132	 6.976306	 5.418839	-2.634381	-20.226540	-7.251738	 87.726710	 87.419040	-176.798600	-74.517710	 61.421390	 71.630110	 5.938253	 2.222857	 8.804735	-19.004560	-22.980890	 25.569770	-0.378652	 26.028680	-61.847810	 5.070519	-0.690904	-9.399550	-2.350882	 35.473990	 5.254307
 0.012041	 0.033323	 1.221197	-179.548800	 0.595429	 0.446493	-4.246891	-10.837360	-179.092400	-1.620514	-39.791980	-6.874684	-162.675700	 85.333100	 149.136000	-2.142190	 49.761340	-0.576905	-6.439270	-10.388770	-178.536300	 6.625540	-39.707710	 9.525221	-170.792200	 84.961800	 179.824400	 2.369284	 31.374180	 0.065974	-30.923870	 5.030637	 1.328985	-1.007379	 11.201100	-2.657774	 7.303546	-25.175230	 5.261948	-91.229190	 83.958270	 178.242500	 44.327260	 67.367650	-58.891890	-8.115451	 2.931300	-9.821222	 5.902109	-28.393060	-16.594730	-11.901900	 7.402352	-24.918600	-5.213937	-0.202400	 3.566957	-1.378229	 35.397820	-2.634230	-1.405784	 6.771780	 5.237684	-2.657858	-20.714710	-7.035644	 87.726930	 87.418960	-176.798900	-76.346800	 61.514370	 73.312710	 8.553287	 2.906128	 9.832855	-16.459890	-23.051250	 26.606210	-0.115376	 26.472180	-62.111340	 5.070519	-0.690904	-9.399550	-2.350882	 35.473990	 5.254307
 0.012656	 0.030779	 1.222129	-179.056600	 0.670872	 0.438613	-4.734264	-11.101320	-179.180900	-1.383975	-39.803200	-6.721801	-160.208600	 85.628340	 146.553100	-2.102446	 51.497280	-0.641503	-6.957388	-10.530610	-178.678000	 6.626906	-39.756970	 9.535800	-170.258100	 85.130750	 179.291500	 2.372780	 30.765810	 0.052294	-33.244650	 5.113029	 1.351648	-1.143432	 12.148790	-2.550395	 7.382700	-26.153550	 5.337129	-91.229090	 83.958310	 178.242400	 43.186850	 66.146030	-55.967460	-10.298950	 3.662050	-10.781730	 4.103426	-28.449370	-17.672480	-12.282430	 6.768863	-25.687540	-5.213937	-0.202400	 3.566957	-1.378229	 35.397820	-2.634230	-1.434740	 6.598040	 5.063285	-2.739691	-21.285670	-6.933236	 87.726520	 87.418960	-176.798500	-80.111740	 61.744060	 77.719310	 10.858280	 3.638682	 10.790580	-14.427540	-22.756480	 27.460940	-0.114145	 26.515900	-62.332650	 5.070519	-0.690904	-9.399550	-2.350882	 35.473990	 5.254307
 0.012798	 0.028544	 1.222841	-178.625100	 0.819512	 0.182439	-5.177052	-11.379880	-178.973300	-1.154334	-39.690940	-6.556631	-157.992600	 85.918940	 144.221900	-2.083085	 52.275550	-0.671922	-7.237084	-10.826030	-178.545800	 6.546377	-39.938070	 9.517593	-170.545000	 85.182890	 179.653600	 2.376199	 30.135910	 0.038259	-34.755050	 5.133026	 1.543849	-1.294498	 12.888140	-2.361068	 7.377846	-27.014980	 5.381760	-91.229220	 83.958310	 178.242500	 42.540440	 65.077870	-53.840860	-12.209810	 4.297439	-11.517620	 2.711750	-28.092030	-18.348920	-12.445940	 6.480653	-25.997580	-5.213937	-0.202400	 3.566957	-1.378229	 35.397820	-2.634230	-1.518332	 6.528694	 5.063096	-2.919924	-21.814840	-7.133465	 87.726570	 87.418890	-176.798500	-83.204640	 61.758060	 81.364230	 12.596770	 4.272720	 11.528110	-13.173210	-22.222950	 27.972240	-0.320956	 26.223340	-62.399170	 5.070519	-0.690904	-9.399550	-2.350882	 35.473990	 5.254307
 0.014299	 0.025991	 1.223735	-177.779100	 1.303483	 0.357753	-5.805268	-12.161520	-179.375600	-0.489368	-39.910980	-6.152503	-152.034400	 86.071250	 137.882400	-1.986992	 55.628600	-0.815080	-7.927848	-11.228640	-178.980100	 6.613398	-39.813260	 9.537859	-168.465800	 84.844860	 177.606600	 2.383984	 28.539930	 0.003274	-36.198290	 5.169134	 1.437070	-1.486525	 13.185110	-2.383514	 7.352345	-28.124430	 5.421364	-91.229240	 83.958340	 178.242600	 43.616520	 64.366570	-53.213490	-14.460350	 5.041438	-12.294260	 1.323970	-27.150070	-18.872500	-11.848600	 7.898481	-25.121430	-5.213937	-0.202400	 3.566957	-1.378229	 35.397820	-2.634230	-1.691614	 6.944710	 4.898041	-3.114024	-22.756030	-7.105883	 87.726780	 87.418960	-176.798700	-85.026810	 61.939860	 82.989680	 14.462920	 5.013873	 12.299540	-11.987440	-21.364890	 28.196480	-0.776221	 25.516510	-62.248920	 5.070519	-0.690904	-9.399550	-2.350882	 35.473990	 5.254307
